mtllib material.mtl
usemtl material_0
v 0.05500000 0.05400000 0.00025000
v 0.05492400 0.05438300 0.00025000
v 0.05470700 0.05470700 0.00025000
v 0.05400000 0.05500000 0.00025000
v 0.05438300 0.05492400 0.00025000
v 0.05400000 -0.05500000 0.00025000
v 0.05450000 -0.05486600 0.00025000
v 0.05486600 -0.05450000 0.00025000
v 0.05500000 -0.01670600 0.00025000
v 0.05500000 -0.05400000 0.00025000
v -0.05500000 -0.05400000 0.00025000
v -0.05486600 -0.05450000 0.00025000
v -0.05450000 -0.05486600 0.00025000
v -0.05400000 -0.05500000 0.00025000
v -0.05500000 -0.05400000 -0.00000000
v -0.05486600 -0.05450000 0.00000000
v -0.05450000 -0.05486600 0.00000000
v -0.05400000 -0.05500000 0.00000000
v -0.01670600 -0.05500000 0.00024000
v 0.01670600 -0.05500000 0.00024000
v 0.05400000 -0.05500000 0.00000000
v 0.05450000 -0.05486600 0.00000000
v 0.05486600 -0.05450000 0.00000000
v 0.05500000 -0.05400000 0.00000000
v 0.05500000 0.01670600 0.00024000
v 0.05500000 0.05400000 0.00000000
v 0.05492400 0.05438300 0.00000000
v 0.05470700 0.05470700 0.00000000
v 0.05438300 0.05492400 0.00000000
v 0.05400000 0.05500000 0.00000000
v 0.01670600 0.05500000 0.00024000
v -0.05400000 0.05500000 0.00000000
v -0.01670600 0.05500000 0.00025000
v -0.05400000 0.05500000 0.00025000
v -0.05438300 0.05492400 0.00000000
v -0.05438300 0.05492400 0.00025000
v -0.05470700 0.05470700 0.00000000
v -0.05470700 0.05470700 0.00025000
v -0.05492400 0.05438300 0.00000000
v -0.05492400 0.05438300 0.00025000
v -0.05500000 0.05400000 0.00000000
v -0.05500000 0.05400000 0.00025000
v -0.05500000 0.01670600 0.00025000
v -0.05500000 -0.01670600 0.00024000
v -0.01670600 0.01670600 0.00024000
v 0.01670600 0.01670600 0.00024000
v 0.01670600 -0.01670600 0.00024000
v -0.01670600 -0.01670600 0.00024000
vn 0.72430000 0.07120000 0.68580000
vn 0.68940000 0.28560000 0.66570000
vn 0.52770000 0.52770000 0.66570000
vn 0.07120000 0.72430000 0.68580000
vn 0.28560000 0.68940000 0.66570000
vn 0.09570000 -0.72800000 0.67890000
vn 0.37860000 -0.65570000 0.65320000
vn 0.65570000 -0.37860000 0.65320000
vn 0.70700000 0.00010000 0.70720000
vn 0.72800000 -0.09580000 0.67890000
vn -0.72790000 -0.09570000 0.67900000
vn -0.65570000 -0.37860000 0.65320000
vn -0.37860000 -0.65570000 0.65320000
vn -0.09570000 -0.72790000 0.67900000
vn -0.72800000 -0.09580000 -0.67890000
vn -0.65570000 -0.37860000 -0.65320000
vn -0.37860000 -0.65570000 -0.65320000
vn -0.09580000 -0.72800000 -0.67890000
vn -0.00000000 -0.70710000 0.70710000
vn -0.00010000 -0.70710000 0.70710000
vn 0.09580000 -0.72800000 -0.67890000
vn 0.37860000 -0.65570000 -0.65320000
vn 0.65570000 -0.37860000 -0.65320000
vn 0.72800000 -0.09580000 -0.67890000
vn 0.70710000 -0.00000000 0.70710000
vn 0.72440000 0.07140000 -0.68570000
vn 0.68940000 0.28560000 -0.66570000
vn 0.52770000 0.52770000 -0.66570000
vn 0.28560000 0.68940000 -0.66570000
vn 0.07130000 0.72440000 -0.68570000
vn -0.00000000 0.70710000 0.70710000
vn -0.07130000 0.72440000 -0.68570000
vn 0.00020000 0.70700000 0.70720000
vn -0.07130000 0.72440000 0.68570000
vn -0.28560000 0.68940000 -0.66570000
vn -0.28560000 0.68940000 0.66570000
vn -0.52760000 0.52760000 -0.66570000
vn -0.52760000 0.52760000 0.66570000
vn -0.68940000 0.28560000 -0.66570000
vn -0.68940000 0.28560000 0.66570000
vn -0.72440000 0.07130000 -0.68570000
vn -0.72440000 0.07130000 0.68570000
vn -0.70700000 -0.00020000 0.70720000
vn -0.70710000 -0.00000000 0.70710000
vn 0.00010000 -0.00010000 1.00000000
vn -0.00000000 -0.00000000 1.00000000
vn -0.00010000 -0.00000000 1.00000000
vn -0.00000000 -0.00000000 1.00000000
vt 0.99958100 0.99052300
vt 0.99889000 0.99399900
vt 0.99692100 0.99694600
vt 0.99049900 0.99960600
vt 0.99397500 0.99891400
vt 0.99049900 0.00053900
vt 0.99504000 0.00175600
vt 0.99836400 0.00508000
vt 0.99958100 0.34833800
vt 0.99958100 0.00962200
vt 0.00051500 0.00962200
vt 0.00173200 0.00508000
vt 0.00505600 0.00175600
vt 0.00959700 0.00053900
vt 0.00051500 0.00962200
vt 0.00173200 0.00508000
vt 0.00505600 0.00175600
vt 0.00959700 0.00053900
vt 0.34831400 0.00053900
vt 0.65178200 0.00053900
vt 0.99049900 0.00053900
vt 0.99504000 0.00175600
vt 0.99836400 0.00508000
vt 0.99958100 0.00962200
vt 0.99958100 0.65180700
vt 0.99958100 0.99052300
vt 0.99889000 0.99399900
vt 0.99692100 0.99694600
vt 0.99397500 0.99891400
vt 0.99049900 0.99960600
vt 0.65178200 0.99960600
vt 0.00959700 0.99960600
vt 0.34831400 0.99960600
vt 0.00959700 0.99960600
vt 0.00612200 0.99891400
vt 0.00612200 0.99891400
vt 0.00317500 0.99694600
vt 0.00317500 0.99694600
vt 0.00120600 0.99399900
vt 0.00120600 0.99399900
vt 0.00051500 0.99052300
vt 0.00051500 0.99052300
vt 0.00051500 0.65180700
vt 0.00051500 0.34833800
vt 0.34831400 0.65180700
vt 0.65178200 0.65180700
vt 0.65178200 0.34833800
vt 0.34831400 0.34833800
f 1/1/1 2/2/2 3/3/3
f 46/46/46 25/25/25 31/31/31
f 31/31/31 25/25/25 1/1/1
f 31/31/31 1/1/1 4/4/4
f 4/4/4 1/1/1 3/3/3
f 4/4/4 3/3/3 5/5/5
f 6/6/6 7/7/7 8/8/8
f 47/47/47 20/20/20 9/9/9
f 9/9/9 20/20/20 6/6/6
f 9/9/9 6/6/6 10/10/10
f 10/10/10 6/6/6 8/8/8
f 11/11/11 12/12/12 13/13/13
f 48/48/48 44/44/44 19/19/19
f 19/19/19 44/44/44 11/11/11
f 19/19/19 11/11/11 14/14/14
f 14/14/14 11/11/11 13/13/13
f 11/11/11 15/15/15 16/16/16
f 11/11/11 16/16/16 12/12/12
f 12/12/12 16/16/16 17/17/17
f 12/12/12 17/17/17 13/13/13
f 13/13/13 17/17/17 18/18/18
f 13/13/13 18/18/18 14/14/14
f 19/19/19 14/14/14 18/18/18
f 19/19/19 18/18/18 20/20/20
f 20/20/20 18/18/18 21/21/21
f 20/20/20 21/21/21 6/6/6
f 6/6/6 21/21/21 22/22/22
f 6/6/6 22/22/22 7/7/7
f 7/7/7 22/22/22 23/23/23
f 7/7/7 23/23/23 8/8/8
f 8/8/8 23/23/23 24/24/24
f 8/8/8 24/24/24 10/10/10
f 9/9/9 10/10/10 24/24/24
f 9/9/9 24/24/24 25/25/25
f 25/25/25 24/24/24 26/26/26
f 25/25/25 26/26/26 1/1/1
f 1/1/1 26/26/26 27/27/27
f 1/1/1 27/27/27 2/2/2
f 2/2/2 27/27/27 28/28/28
f 2/2/2 28/28/28 3/3/3
f 3/3/3 28/28/28 29/29/29
f 3/3/3 29/29/29 5/5/5
f 5/5/5 29/29/29 30/30/30
f 5/5/5 30/30/30 4/4/4
f 31/31/31 4/4/4 30/30/30
f 31/31/31 30/30/30 33/33/33
f 33/33/33 30/30/30 32/32/32
f 33/33/33 32/32/32 34/34/34
f 34/34/34 32/32/32 35/35/35
f 34/34/34 35/35/35 36/36/36
f 36/36/36 35/35/35 37/37/37
f 36/36/36 37/37/37 38/38/38
f 38/38/38 37/37/37 39/39/39
f 38/38/38 39/39/39 40/40/40
f 40/40/40 39/39/39 41/41/41
f 40/40/40 41/41/41 42/42/42
f 43/43/43 42/42/42 41/41/41
f 43/43/43 41/41/41 44/44/44
f 44/44/44 41/41/41 15/15/15
f 44/44/44 15/15/15 11/11/11
f 45/45/45 33/33/33 43/43/43
f 43/43/43 33/33/33 34/34/34
f 43/43/43 34/34/34 42/42/42
f 36/36/36 38/38/38 34/34/34
f 34/34/34 38/38/38 40/40/40
f 34/34/34 40/40/40 42/42/42
f 30/30/30 29/29/29 28/28/28
f 18/18/18 17/17/17 16/16/16
f 23/23/23 22/22/22 24/24/24
f 24/24/24 22/22/22 21/21/21
f 24/24/24 21/21/21 26/26/26
f 16/16/16 15/15/15 18/18/18
f 18/18/18 15/15/15 32/32/32
f 18/18/18 32/32/32 21/21/21
f 21/21/21 32/32/32 30/30/30
f 21/21/21 30/30/30 26/26/26
f 26/26/26 30/30/30 28/28/28
f 26/26/26 28/28/28 27/27/27
f 37/37/37 35/35/35 39/39/39
f 39/39/39 35/35/35 32/32/32
f 39/39/39 32/32/32 41/41/41
f 41/41/41 32/32/32 15/15/15
f 33/33/33 45/45/45 31/31/31
f 31/31/31 45/45/45 46/46/46
f 19/19/19 20/20/20 48/48/48
f 48/48/48 20/20/20 47/47/47
f 9/9/9 25/25/25 47/47/47
f 47/47/47 25/25/25 46/46/46
f 47/47/47 46/46/46 48/48/48
f 48/48/48 46/46/46 45/45/45
f 48/48/48 45/45/45 44/44/44
f 44/44/44 45/45/45 43/43/43

