v -0.277647 0.001799 0.074987
v -0.269455 0.001799 0.074987
v -0.269455 0.001066 0.074484
v -0.277647 0.001066 0.074484
v -0.269455 0.000205 0.074262
v -0.277647 0.000205 0.074262
v -0.269455 -0.000680 0.074349
v -0.277647 -0.000680 0.074349
v -0.269455 -0.001482 0.074732
v -0.277647 -0.001482 0.074732
v -0.269455 -0.002104 0.075367
v -0.277647 -0.002104 0.075367
v -0.269455 -0.002472 0.076177
v -0.277647 -0.002472 0.076177
v -0.269455 -0.002541 0.077062
v -0.277647 -0.002541 0.077062
v -0.269455 -0.002303 0.077920
v -0.277647 -0.002303 0.077920
v -0.269455 -0.001786 0.078643
v -0.277647 -0.001786 0.078643
v -0.268348 0.001131 0.075668
v -0.268348 0.001484 0.076186
v -0.268348 0.001503 0.076273
v -0.268348 0.001612 0.076799
v -0.268348 0.001579 0.076974
v -0.268348 0.001496 0.077414
v -0.268348 0.001349 0.077639
v -0.268348 0.001153 0.077938
v -0.268348 0.000857 0.078141
v -0.268348 0.000636 0.078292
v -0.268348 0.000197 0.078383
v -0.268348 0.000023 0.078420
v -0.268348 -0.001117 0.077961
v -0.268348 -0.000593 0.078304
v -0.268348 -0.000506 0.078320
v -0.268024 -0.000719 0.078616
v -0.268024 -0.001352 0.078201
v -0.268024 0.000026 0.078756
v -0.268024 0.000768 0.078601
v -0.268024 0.001393 0.078174
v -0.268024 0.001808 0.077539
v -0.268024 0.001948 0.076796
v -0.268024 0.001366 0.075429
v -0.268024 0.001793 0.076054
v -0.268024 0.000732 0.075014
v -0.268348 0.000606 0.075325
v -0.268348 0.000519 0.075309
v -0.268024 -0.000012 0.074873
v -0.268348 -0.000009 0.075209
v -0.268348 -0.000184 0.075246
v -0.268024 -0.000754 0.075029
v -0.268348 -0.000623 0.075338
v -0.268348 -0.000843 0.075488
v -0.268024 -0.001380 0.075456
v -0.268348 -0.001139 0.075691
v -0.268024 -0.001794 0.076090
v -0.268348 -0.001336 0.075991
v -0.268348 -0.001483 0.076215
v -0.268348 -0.001565 0.076655
v -0.268024 -0.001934 0.076834
v -0.268348 -0.001470 0.077443
v -0.268024 -0.001779 0.077575
v -0.268348 -0.001489 0.077357
v -0.268348 -0.001598 0.076830
v -0.269455 -0.001052 0.079145
v -0.269455 -0.000192 0.079366
v -0.269455 0.000694 0.079280
v -0.269455 0.001496 0.078897
v -0.269455 0.002119 0.078263
v -0.269455 0.002486 0.077453
v -0.269455 0.002555 0.076567
v -0.269455 0.002316 0.075710
v -0.277647 -0.001052 0.079145
v -0.277647 -0.000192 0.079366
v -0.277647 0.000694 0.079280
v -0.277647 0.001496 0.078897
v -0.277647 0.002119 0.078263
v -0.277647 0.002486 0.077453
v -0.277647 0.002555 0.076567
v -0.277647 0.002316 0.075710
vn 0.7484 0.4643 -0.4736
vn -0.3985 0.6421 -0.6549
vn -0.3985 0.3794 -0.8350
vn 0.7484 0.2744 -0.6038
vn -0.3985 0.0710 -0.9144
vn 0.7484 0.0513 -0.6613
vn -0.3985 -0.2460 -0.8836
vn 0.7484 -0.1780 -0.6390
vn -0.3985 -0.5335 -0.7461
vn 0.7484 -0.3856 -0.5396
vn -0.3985 -0.7565 -0.5186
vn 0.7484 -0.5470 -0.3751
vn -0.3985 -0.8882 -0.2288
vn 0.7484 -0.6423 -0.1654
vn -0.3985 -0.9129 0.0889
vn 0.7484 -0.6602 0.0641
vn -0.3985 -0.8274 0.3958
vn 0.7484 -0.5983 0.2862
vn -0.3985 -0.6422 0.6549
vn 0.7484 -0.4643 0.4736
vn 0.9468 0.1203 -0.2986
vn 0.9468 0.2254 -0.2299
vn 0.4172 0.6363 -0.6489
vn 0.4170 0.3397 -0.8430
vn 0.3947 0.1703 -0.9029
vn 0.9468 -0.0031 -0.3217
vn 0.4162 -0.0088 -0.9092
vn 0.3941 -0.1881 -0.8996
vn 0.9469 -0.1261 -0.2959
vn 0.4159 -0.3562 -0.8368
vn 0.3939 -0.5181 -0.7592
vn 0.9468 -0.2298 -0.2254
vn 0.4156 -0.6494 -0.6368
vn 0.9469 -0.2984 -0.1202
vn 0.3937 -0.7693 -0.5032
vn 0.4156 -0.8438 -0.3396
vn 0.3941 -0.9031 -0.1705
vn 0.9468 -0.3217 0.0032
vn 0.4171 -0.6363 0.6489
vn 0.9468 -0.2254 0.2299
vn 0.4166 -0.8363 0.3564
vn 0.9467 -0.2963 0.1262
vn 0.3946 -0.8994 0.1881
vn 0.4162 -0.9092 0.0092
vn 0.9468 -0.1203 0.2986
vn 0.4170 -0.3397 0.8430
vn 0.3947 -0.1703 0.9029
vn 0.9468 0.0031 0.3217
vn 0.4162 0.0087 0.9092
vn 0.3941 0.1881 0.8996
vn 0.9469 0.1260 0.2958
vn 0.4161 0.3561 0.8367
vn 0.3940 0.5181 0.7592
vn 0.9468 0.2298 0.2255
vn 0.4155 0.6495 0.6369
vn 0.9469 0.2982 0.1201
vn 0.3939 0.7692 0.5031
vn 0.4158 0.8437 0.3396
vn 0.3941 0.9031 0.1704
vn 0.9468 0.3217 -0.0032
vn 0.4167 0.8363 -0.3564
vn 0.9467 0.2963 -0.1262
vn 0.3947 0.8994 -0.1881
vn 0.4162 0.9092 -0.0092
vn -0.3985 -0.3793 0.8351
vn 0.7484 -0.2743 0.6039
vn -0.3985 -0.0710 0.9144
vn 0.7484 -0.0511 0.6612
vn -0.3985 0.2461 0.8836
vn 0.7484 0.1780 0.6389
vn -0.3985 0.5334 0.7461
vn 0.7484 0.3857 0.5396
vn -0.3985 0.7564 0.5187
vn 0.7484 0.5470 0.3751
vn -0.3985 0.8882 0.2288
vn 0.7484 0.6423 0.1654
vn -0.3985 0.9128 -0.0890
vn 0.7484 0.6602 -0.0641
vn -0.3985 0.8274 -0.3957
vn 0.7484 0.5983 -0.2863
s 1
usemtl material_0
f 1//1 2//2 3//3
f 1//1 3//3 4//4
f 4//4 3//3 5//5
f 4//4 5//5 6//6
f 6//6 5//5 7//7
f 6//6 7//7 8//8
f 8//8 7//7 9//9
f 8//8 9//9 10//10
f 10//10 9//9 11//11
f 10//10 11//11 12//12
f 12//12 11//11 13//13
f 12//12 13//13 14//14
f 14//14 13//13 15//15
f 14//14 15//15 16//16
f 16//16 15//15 17//17
f 16//16 17//17 18//18
f 18//18 17//17 19//19
f 18//18 19//19 20//20
f 36//21 37//22 33//23
f 33//23 34//24 36//21
f 36//21 34//24 35//25
f 36//21 35//25 38//26
f 35//25 32//27 38//26
f 38//26 32//27 31//28
f 38//26 31//28 39//29
f 31//28 30//30 39//29
f 39//29 30//30 29//31
f 39//29 29//31 40//32
f 40//32 29//31 28//33
f 40//32 28//33 41//34
f 41//34 28//33 27//35
f 27//35 26//36 41//34
f 41//34 26//36 25//37
f 41//34 25//37 42//38
f 21//39 43//40 22//41
f 22//41 43//40 44//42
f 22//41 44//42 23//43
f 23//43 44//42 42//38
f 23//43 42//38 24//44
f 24//44 42//38 25//37
f 45//45 43//40 21//39
f 21//39 46//46 45//45
f 45//45 46//46 47//47
f 45//45 47//47 48//48
f 47//47 49//49 48//48
f 48//48 49//49 50//50
f 48//48 50//50 51//51
f 50//50 52//52 51//51
f 51//51 52//52 53//53
f 51//51 53//53 54//54
f 54//54 53//53 55//55
f 54//54 55//55 56//56
f 56//56 55//55 57//57
f 57//57 58//58 56//56
f 56//56 58//58 59//59
f 56//56 59//59 60//60
f 33//23 37//22 61//61
f 61//61 37//22 62//62
f 61//61 62//62 63//63
f 63//63 62//62 60//60
f 63//63 60//60 64//64
f 64//64 60//60 59//59
f 20//20 19//19 65//65
f 20//20 65//65 73//66
f 73//66 65//65 66//67
f 73//66 66//67 74//68
f 74//68 66//67 67//69
f 74//68 67//69 75//70
f 75//70 67//69 68//71
f 75//70 68//71 76//72
f 76//72 68//71 69//73
f 76//72 69//73 77//74
f 77//74 69//73 70//75
f 77//74 70//75 78//76
f 78//76 70//75 71//77
f 78//76 71//77 79//78
f 79//78 71//77 72//79
f 79//78 72//79 80//80
f 80//80 72//79 2//2
f 80//80 2//2 1//1
